<?xml version="1.0" encoding="UTF-8" standalone="no"?>
<svg
   xmlns:dc="http://purl.org/dc/elements/1.1/"
   xmlns:cc="http://creativecommons.org/ns#"
   xmlns:rdf="http://www.w3.org/1999/02/22-rdf-syntax-ns#"
   xmlns:svg="http://www.w3.org/2000/svg"
   xmlns="http://www.w3.org/2000/svg"
   xmlns:sodipodi="http://sodipodi.sourceforge.net/DTD/sodipodi-0.dtd"
   xmlns:inkscape="http://www.inkscape.org/namespaces/inkscape"
   fill="#657c7e"
   height="32"
   viewBox="0 0 24 24"
   width="32"
   version="1.1"
   id="svg6"
   sodipodi:docname="center.svg"
   inkscape:version="0.92.2 (5c3e80d, 2017-08-06)">
  <metadata
     id="metadata12">
    <rdf:RDF>
      <cc:Work
         rdf:about="">
        <dc:format>image/svg+xml</dc:format>
        <dc:type
           rdf:resource="http://purl.org/dc/dcmitype/StillImage" />
      </cc:Work>
    </rdf:RDF>
  </metadata>
  <defs
     id="defs10" />
  <sodipodi:namedview
     pagecolor="#ffffff"
     bordercolor="#666666"
     borderopacity="1"
     objecttolerance="10"
     gridtolerance="10"
     guidetolerance="10"
     inkscape:pageopacity="0"
     inkscape:pageshadow="2"
     inkscape:window-width="1920"
     inkscape:window-height="1025"
     id="namedview8"
     showgrid="true"
     inkscape:zoom="20.85965"
     inkscape:cx="16.263667"
     inkscape:cy="15.700248"
     inkscape:window-x="0"
     inkscape:window-y="27"
     inkscape:window-maximized="1"
     inkscape:current-layer="svg6">
    <inkscape:grid
       type="xygrid"
       id="grid822" />
  </sodipodi:namedview>
  <path
     d="M0 0h24v24H0z"
     fill="none"
     id="path2" />
  <path
     d="M 5.25,15 H 3 c -0.032322,1.939909 0,6 0,6 H 9 V 18.75 H 5.25 Z m 0,-9.75 H 9 V 3 L 3.022498,3.0719092 C 3.022498,3.0719092 3,6.5325398 3,9 H 5.25 Z M 15,3 v 2.25 h 3.75 V 9 H 21 V 3 c 0,0 -3.268577,0.059703 -6,0 z m 3.75,15.75 H 15 V 21 h 6 v -6 h -2.25 z"
     id="path4"
     inkscape:connector-curvature="0"
     sodipodi:nodetypes="cccccccccccccccccccccccccccc" />
  <path
     style="fill:#657c7e;fill-opacity:1;stroke:none;stroke-width:0;stroke-linejoin:round;stroke-miterlimit:4.80000019;stroke-dasharray:none;stroke-opacity:1"
     d="M 16.007812 11 A 5.0073725 5.007885 0 0 0 11 16.007812 A 5.0073725 5.007885 0 0 0 16.007812 21.015625 A 5.0073725 5.007885 0 0 0 21.015625 16.007812 A 5.0073725 5.007885 0 0 0 16.007812 11 z M 16.007812 14 A 2.0073725 2.007885 0 0 1 18.015625 16.007812 A 2.0073725 2.007885 0 0 1 16.007812 18.015625 A 2.0073725 2.007885 0 0 1 14 16.007812 A 2.0073725 2.007885 0 0 1 16.007812 14 z "
     transform="scale(0.75)"
     id="path828" />
</svg>
