<?xml version="1.0" encoding="UTF-8" standalone="no"?>
<!-- Generated by IcoMoon.io -->

<svg
   xmlns:dc="http://purl.org/dc/elements/1.1/"
   xmlns:cc="http://creativecommons.org/ns#"
   xmlns:rdf="http://www.w3.org/1999/02/22-rdf-syntax-ns#"
   xmlns:svg="http://www.w3.org/2000/svg"
   xmlns="http://www.w3.org/2000/svg"
   xmlns:sodipodi="http://sodipodi.sourceforge.net/DTD/sodipodi-0.dtd"
   xmlns:inkscape="http://www.inkscape.org/namespaces/inkscape"
   version="1.1"
   width="20"
   height="20"
   viewBox="0 0 20 20"
   id="svg6"
   sodipodi:docname="bold.svg"
   inkscape:version="0.92.2 (5c3e80d, 2017-08-06)">
  <sodipodi:namedview
     pagecolor="#ffffff"
     bordercolor="#666666"
     borderopacity="1"
     objecttolerance="10"
     gridtolerance="10"
     guidetolerance="10"
     inkscape:pageopacity="0"
     inkscape:pageshadow="2"
     inkscape:window-width="1920"
     inkscape:window-height="1025"
     id="namedview8"
     showgrid="true"
     inkscape:zoom="47.2"
     inkscape:cx="10.466102"
     inkscape:cy="12.872108"
     inkscape:window-x="0"
     inkscape:window-y="27"
     inkscape:window-maximized="1"
     inkscape:current-layer="svg6"
     inkscape:snap-midpoints="true"
     inkscape:snap-grids="true"
     inkscape:snap-bbox="true"
     inkscape:bbox-nodes="true"
     inkscape:snap-bbox-edge-midpoints="true"
     inkscape:snap-bbox-midpoints="true">
    <inkscape:grid
       id="grid822"
       type="xygrid" />
  </sodipodi:namedview>
  <metadata
     id="metadata12">
    <rdf:RDF>
      <cc:Work
         rdf:about="">
        <dc:format>image/svg+xml</dc:format>
        <dc:type
           rdf:resource="http://purl.org/dc/dcmitype/StillImage" />
        <dc:title>italic</dc:title>
      </cc:Work>
    </rdf:RDF>
  </metadata>
  <defs
     id="defs10" />
  <title
     id="title2">italic</title>
  <path
     sodipodi:nodetypes="cssccsscccsscccccccc"
     inkscape:connector-curvature="0"
     d="M 14,9 C 15,8 15.388886,6.9571741 15.346253,4.9512881 15.30388,2.9576271 13,5.0000001e-8 10.00049,5.0000001e-8 H 3.0000001 V 20 H 11.4 C 14.488134,20 17,17.542932 17,14.286 17,11.507486 15.788824,10.37657 14,9 Z M 9,3 c 1,0 3,1 3,3 0,2 -2.0025776,2.9886721 -2.9938013,2.9924181 L 7.0000001,9 V 3 Z m 1,14 H 7.0000001 V 11 H 10 c 1,0 3,1 3,3 0,2 -2,3 -3,3 z"
     id="path4"
     style="fill:#2c3536;fill-opacity:1" />
</svg>
