<?xml version="1.0" encoding="UTF-8" standalone="no"?>
<!-- Generated by IcoMoon.io -->

<svg
   xmlns:dc="http://purl.org/dc/elements/1.1/"
   xmlns:cc="http://creativecommons.org/ns#"
   xmlns:rdf="http://www.w3.org/1999/02/22-rdf-syntax-ns#"
   xmlns:svg="http://www.w3.org/2000/svg"
   xmlns="http://www.w3.org/2000/svg"
   xmlns:sodipodi="http://sodipodi.sourceforge.net/DTD/sodipodi-0.dtd"
   xmlns:inkscape="http://www.inkscape.org/namespaces/inkscape"
   version="1.1"
   width="20"
   height="20"
   viewBox="0 0 20 20"
   id="svg10"
   sodipodi:docname="image.svg"
   inkscape:version="0.92.2 (5c3e80d, 2017-08-06)">
  <sodipodi:namedview
     pagecolor="#ffffff"
     bordercolor="#666666"
     borderopacity="1"
     objecttolerance="10"
     gridtolerance="10"
     guidetolerance="10"
     inkscape:pageopacity="0"
     inkscape:pageshadow="2"
     inkscape:window-width="1920"
     inkscape:window-height="1025"
     id="namedview12"
     showgrid="true"
     inkscape:zoom="47.2"
     inkscape:cx="12.713858"
     inkscape:cy="13.030428"
     inkscape:window-x="0"
     inkscape:window-y="27"
     inkscape:window-maximized="1"
     inkscape:current-layer="svg10"
     inkscape:object-paths="true">
    <inkscape:grid
       type="xygrid"
       id="grid3707" />
  </sodipodi:namedview>
  <metadata
     id="metadata16">
    <rdf:RDF>
      <cc:Work
         rdf:about="">
        <dc:format>image/svg+xml</dc:format>
        <dc:type
           rdf:resource="http://purl.org/dc/dcmitype/StillImage" />
      </cc:Work>
    </rdf:RDF>
  </metadata>
  <defs
     id="defs14" />
  <title
     id="title2">image</title>
  <path
     transform="matrix(1.000000,0.000000,0.000000,1.000000,0.000000,0.000000)"
     sodipodi:nodetypes="ccccccc"
     inkscape:connector-curvature="0"
     style="fill:#2c3536;fill-opacity:1"
     d="M16.0 17.0L4.0 17.0L4.0 15.0L7.0 9.0L12.0 15.0L16.0 12.0Z"
     id="path4" />
  <path
     transform="matrix(1.000000,0.000000,0.000000,1.000000,0.000000,0.000000)"
     sodipodi:nodetypes="ccccc"
     inkscape:connector-curvature="0"
     style="fill:#2c3536;fill-opacity:1;stroke-width:1.08015466"
     d="M16.0 9.0C16.0 10.13199 15.106237 11.0 14.0 11.0C12.893762 11.0 12.0 10.13199 12.0 9.0C12.0 7.8680089 12.893762 7.0 14.0 7.0C15.106237 7.0 16.0 7.8680089 16.0 9.0Z"
     id="path6" />
  <path
     transform="matrix(1.000000,0.000000,0.000000,1.000000,0.000000,0.000000)"
     style="fill:#2c3536;fill-opacity:1"
     sodipodi:nodetypes="ccccccccccccc"
     inkscape:connector-curvature="0"
     d="M14.0 0.0C14.0 0.0 5.1454605 0.00272095 1.0 0.0L1.0 20.0L19.0 20.0L19.0 6.0ZM3.0 18.0L3.0 2.0L13.0 2.0L13.0 6.0L17.0 6.0L17.0 18.0Z"
     id="path8" />
</svg>
