<?xml version="1.0" encoding="UTF-8" standalone="no"?>
<svg
   xmlns:dc="http://purl.org/dc/elements/1.1/"
   xmlns:cc="http://creativecommons.org/ns#"
   xmlns:rdf="http://www.w3.org/1999/02/22-rdf-syntax-ns#"
   xmlns:svg="http://www.w3.org/2000/svg"
   xmlns="http://www.w3.org/2000/svg"
   xmlns:sodipodi="http://sodipodi.sourceforge.net/DTD/sodipodi-0.dtd"
   xmlns:inkscape="http://www.inkscape.org/namespaces/inkscape"
   sodipodi:docname="zoomin.svg"
   id="svg8"
   version="1.1"
   width="32"
   viewBox="0 0 24 24"
   height="32"
   fill="#657c7e"
   inkscape:version="0.92.2 (5c3e80d, 2017-08-06)">
  <metadata
     id="metadata14">
    <rdf:RDF>
      <cc:Work
         rdf:about="">
        <dc:format>image/svg+xml</dc:format>
        <dc:type
           rdf:resource="http://purl.org/dc/dcmitype/StillImage" />
      </cc:Work>
    </rdf:RDF>
  </metadata>
  <defs
     id="defs12" />
  <sodipodi:namedview
     inkscape:current-layer="svg8"
     inkscape:window-maximized="1"
     inkscape:window-y="27"
     inkscape:window-x="0"
     inkscape:cy="18.876367"
     inkscape:cx="16.263667"
     inkscape:zoom="41.7193"
     showgrid="true"
     id="namedview10"
     inkscape:window-height="1025"
     inkscape:window-width="1920"
     inkscape:pageshadow="2"
     inkscape:pageopacity="0"
     guidetolerance="10"
     gridtolerance="10"
     objecttolerance="10"
     borderopacity="1"
     bordercolor="#666666"
     pagecolor="#ffffff">
    <inkscape:grid
       type="xygrid"
       id="grid821" />
  </sodipodi:namedview>
  <path
     d="M 15.75,14.25 14.71,14 14.43,13.73 C 15.41,12.59 16,11.11 16,9.5 16,5.91 13.09,3 9.5,3 5.91,3 3,5.91 3,9.5 3,13.09 5.91,16 9.5,16 c 1.61,0 3.09,-0.59 4.23,-1.57 l 0.27,0.28 0.25,1.04 4.5,4.5 1.5,-1.5 z M 9.5,14 C 7.01,14 5,11.99 5,9.5 5,7.01 7.01,5 9.5,5 11.99,5 14,7.01 14,9.5 14,11.99 11.99,14 9.5,14 Z"
     id="path2"
     inkscape:connector-curvature="0"
     sodipodi:nodetypes="cccssssccccccsssss" />
  <path
     d="M0 0h24v24H0V0z"
     fill="none"
     id="path4" />
  <path
     d="M 12,9.75 H 9.75 V 12 H 9 V 9.75 H 6.75 V 9 H 9 V 7 H 9.75 V 9 H 12 Z"
     id="path6"
     inkscape:connector-curvature="0"
     sodipodi:nodetypes="ccccccccccccc" />
  <path
     style="fill:#ffffff;fill-opacity:1;stroke:none;stroke-width:0;stroke-linejoin:round;stroke-miterlimit:4.80000019;stroke-dasharray:none;stroke-opacity:1"
     id="path839"
     sodipodi:type="arc"
     sodipodi:cx="18.75"
     sodipodi:cy="8.1440296"
     sodipodi:rx="1.5"
     sodipodi:ry="1.8876154"
     sodipodi:start="0"
     sodipodi:end="0.01051889"
     d="m 20.25,8.1440296 a 1.5,1.8876154 0 0 1 -8.3e-5,0.019855 L 18.75,8.1440296 Z" />
</svg>
